<svg width="307" height="329" viewBox="0 0 307 329" fill="none" xmlns="http://www.w3.org/2000/svg">
<g clip-path="url(#clip0_9_83)">
<rect x="-156" y="-78" width="668" height="668" fill="#D8EEC7"/>
<rect x="-71" y="-62" width="394.13" height="429.31" fill="#D8EEC7"/>
<ellipse cx="153.5" cy="164.5" rx="153.5" ry="164.5" fill="#B4C9A4"/>
<path d="M223.175 90C227 66.5 244.316 56.8786 226.5 38.5C208.684 20.1214 181.196 9 156 9C130.804 9 106.641 19.325 88.8249 37.7035C71.0089 56.0821 62 63 82.0002 95.5L156 107L223.175 90Z" fill="#85A779"/>
<path d="M217.16 88.5612C220.51 67.2194 236.608 55.8177 221 39.127C205.392 22.4362 180.384 15 158.311 15C136.239 15 112.107 19.3093 96.4997 36C71.9184 53.516 75.4789 63.9847 92.9999 93.5L158.311 104L217.16 88.5612Z" fill="#E0EC49"/>
<path d="M231.061 100.5C231.061 135.018 318.061 148 231.061 163C203.999 163 173 145.018 173 110.5C173 75.9822 194.938 48 222 48C249.062 48 231.061 65.9822 231.061 100.5Z" fill="#85A779"/>
<path d="M220.224 97.1522C220.224 134.071 307.469 147.957 220.224 164C193.086 164 162 144.767 162 107.848C162 70.9288 184 41 211.138 41C238.276 41 220.224 60.2331 220.224 97.1522Z" fill="#E0EC49"/>
<path d="M143.611 108C143.611 135.614 113.42 158 81.1112 158C20.111 158 81.1112 135.614 81.1112 108C81.1112 80.3858 52.8027 58 85.1113 58C117.42 58 143.611 80.3858 143.611 108Z" fill="#85A779"/>
<path d="M153 106C153 134.719 122.678 158 90.2288 158C28.964 158 90.2288 134.719 90.2288 106C90.2288 77.2812 61.7975 54 94.2463 54C126.695 54 153 77.2812 153 106Z" fill="#E0EC49"/>
<ellipse cx="157.5" cy="113" rx="46.5" ry="50" fill="#E0EC49"/>
<path d="M269.845 145.063C288.345 192.563 284.467 243.063 250.345 278C228.497 313.256 184.243 321.063 153.345 321.063C122.447 321.063 78.4274 301.563 58.3453 276.063C63.3452 287.563 7.34496 198.063 55.3446 145.063H153.345H269.845Z" fill="#85A779"/>
<path d="M259 145C275.458 190.341 274.856 241.152 244.5 274.5C225.063 308.154 181.088 313 153.601 313C126.113 313 80.3654 293.341 62.4997 269C66.9478 279.977 23.7146 195.591 66.4165 145H153.601H259Z" fill="#E0EC49"/>
<path d="M225.23 186C245.23 194.904 242.23 248.642 217.23 272.5C205.23 283.951 171.048 295.096 153.494 295.096C135.94 295.096 106.726 282.926 95.3166 267.858C98.1571 274.653 61.7285 216.5 95.3165 191.096H153.494L225.23 186Z" fill="#7E6548"/>
<path d="M164.147 184C164.147 205.539 132.052 216.5 105.819 216.5C65.1595 212.5 100.159 194.934 100.159 173C100.16 163.5 95.7413 139.5 121.975 139.5C148.208 139.5 164.147 162.461 164.147 184Z" fill="#7E6548"/>
<path d="M227 183.95C261.305 225.111 217.238 238.256 191.38 229.443C172.162 229.443 153.108 209.075 153.108 183.95C146.5 156.5 147.108 117 200 126C225.138 130.277 215.068 180.21 227 183.95Z" fill="#7E6548"/>
<path d="M217.35 170.454C216.619 187.559 185.431 200.119 155.083 198.823C124.735 197.526 100.725 182.609 101.456 165.504C94.7432 135.189 132.328 101.763 162.676 103.059C193.024 104.356 227.43 145.361 217.35 170.454Z" fill="#7E6548"/>
<path d="M190 143.5C190 146.538 187.314 149 184 149C180.686 149 178 146.538 178 143.5C178 140.462 180.686 138 184 138C187.314 138 190 140.462 190 143.5Z" fill="#FFFDFD"/>
<path d="M190 143.5C190 146.538 187.314 149 184 149C180.686 149 178 146.538 178 143.5C178 140.462 180.686 138 184 138C187.314 138 190 140.462 190 143.5Z" fill="#FFFDFD"/>
<path d="M190 143.5C190 146.538 187.314 149 184 149C180.686 149 178 146.538 178 143.5C178 140.462 180.686 138 184 138C187.314 138 190 140.462 190 143.5Z" fill="#FFFDFD"/>
<path d="M190 143.5C190 146.538 187.314 149 184 149C180.686 149 178 146.538 178 143.5C178 140.462 180.686 138 184 138C187.314 138 190 140.462 190 143.5Z" fill="#FFFDFD"/>
<path d="M120 54C120 58.9706 117.314 63 114 63C110.686 63 108 58.9706 108 54C108 49.0294 110.686 45 114 45C117.314 45 120 49.0294 120 54Z" fill="#FFFDFD"/>
<path d="M120 54C120 58.9706 117.314 63 114 63C110.686 63 108 58.9706 108 54C108 49.0294 110.686 45 114 45C117.314 45 120 49.0294 120 54Z" fill="#FFFDFD"/>
<path d="M120 54C120 58.9706 117.314 63 114 63C110.686 63 108 58.9706 108 54C108 49.0294 110.686 45 114 45C117.314 45 120 49.0294 120 54Z" fill="#FFFDFD"/>
<path d="M120 54C120 58.9706 117.314 63 114 63C110.686 63 108 58.9706 108 54C108 49.0294 110.686 45 114 45C117.314 45 120 49.0294 120 54Z" fill="#FFFDFD"/>
<path d="M194 126C194 129.866 191.538 133 188.5 133C185.462 133 183 129.866 183 126C183 122.134 185.462 119 188.5 119C191.538 119 194 122.134 194 126Z" fill="#FFFDFD"/>
<path d="M194 126C194 129.866 191.538 133 188.5 133C185.462 133 183 129.866 183 126C183 122.134 185.462 119 188.5 119C191.538 119 194 122.134 194 126Z" fill="#FFFDFD"/>
<path d="M194 126C194 129.866 191.538 133 188.5 133C185.462 133 183 129.866 183 126C183 122.134 185.462 119 188.5 119C191.538 119 194 122.134 194 126Z" fill="#FFFDFD"/>
<path d="M194 126C194 129.866 191.538 133 188.5 133C185.462 133 183 129.866 183 126C183 122.134 185.462 119 188.5 119C191.538 119 194 122.134 194 126Z" fill="#FFFDFD"/>
<path d="M136 41C136 44.866 133.761 48 131 48C128.239 48 126 44.866 126 41C126 37.134 128.239 34 131 34C133.761 34 136 37.134 136 41Z" fill="#FFFDFD"/>
<path d="M136 41C136 44.866 133.761 48 131 48C128.239 48 126 44.866 126 41C126 37.134 128.239 34 131 34C133.761 34 136 37.134 136 41Z" fill="#FFFDFD"/>
<path d="M136 41C136 44.866 133.761 48 131 48C128.239 48 126 44.866 126 41C126 37.134 128.239 34 131 34C133.761 34 136 37.134 136 41Z" fill="#FFFDFD"/>
<path d="M136 41C136 44.866 133.761 48 131 48C128.239 48 126 44.866 126 41C126 37.134 128.239 34 131 34C133.761 34 136 37.134 136 41Z" fill="#FFFDFD"/>
<path d="M205 146C205 149.866 202.761 153 200 153C197.239 153 195 149.866 195 146C195 142.134 197.239 139 200 139C202.761 139 205 142.134 205 146Z" fill="#FFFDFD"/>
<path d="M205 146C205 149.866 202.761 153 200 153C197.239 153 195 149.866 195 146C195 142.134 197.239 139 200 139C202.761 139 205 142.134 205 146Z" fill="#FFFDFD"/>
<path d="M205 146C205 149.866 202.761 153 200 153C197.239 153 195 149.866 195 146C195 142.134 197.239 139 200 139C202.761 139 205 142.134 205 146Z" fill="#FFFDFD"/>
<path d="M205 146C205 149.866 202.761 153 200 153C197.239 153 195 149.866 195 146C195 142.134 197.239 139 200 139C202.761 139 205 142.134 205 146Z" fill="#FFFDFD"/>
<path d="M136 65C136 68.866 133.761 72 131 72C128.239 72 126 68.866 126 65C126 61.134 128.239 58 131 58C133.761 58 136 61.134 136 65Z" fill="#FFFDFD"/>
<path d="M136 65C136 68.866 133.761 72 131 72C128.239 72 126 68.866 126 65C126 61.134 128.239 58 131 58C133.761 58 136 61.134 136 65Z" fill="#FFFDFD"/>
<path d="M136 65C136 68.866 133.761 72 131 72C128.239 72 126 68.866 126 65C126 61.134 128.239 58 131 58C133.761 58 136 61.134 136 65Z" fill="#FFFDFD"/>
<path d="M136 65C136 68.866 133.761 72 131 72C128.239 72 126 68.866 126 65C126 61.134 128.239 58 131 58C133.761 58 136 61.134 136 65Z" fill="#FFFDFD"/>
</g>
<defs>
<clipPath id="clip0_9_83">
<rect width="307" height="329" fill="white"/>
</clipPath>
</defs>
</svg>