<svg width="62" height="62" viewBox="0 0 62 62" fill="none" xmlns="http://www.w3.org/2000/svg">
<g clip-path="url(#clip0_1_16)">
<rect width="62" height="62" rx="31" fill="#B4C9A4"/>
<path d="M24 23.8752C22.5843 21.84 19.2712 17.3433 17.9137 17.6255L13.5663 17L10.5227 18.25C9.65324 19.5 10.0013 22.3754 7.91456 23.8752C4.78438 25.875 3.71201 28.0417 3.56709 28.875C2.98743 29.9167 2.3498 32 4.43658 32C6.52337 32 8.20419 30.75 8.78375 30.125C10.1752 31.125 11.6822 31.7917 12.2617 32C13.2761 32 16.1744 31.875 19.6524 31.375C23.1305 30.875 24 30.3333 24 30.125" stroke="#FFFDFD"/>
<path d="M42.5 21C43.7 23.8 45.3333 25.8333 46 26.5C46.1667 26.8333 46.9 27.5 48.5 27.5C51.5 29 51 28 52 31.5C49.5 38 51.5 37.5 45 42.5C36.5 47.5 36 46.5 32 46C28 45.5 26.5 46 22 42.5C18.4 39.7 17.1667 37.3333 17 36.5" stroke="#FFFDFD"/>
<path d="M42.5051 20.4878C42.5051 20.4945 42.5236 21.2426 42.6277 21.2426C42.7004 21.2426 42.4481 21.0675 42.439 21.0633C42.3031 21.001 42.3472 20.8195 42.2126 20.7425C42.1032 20.68 41.9956 19.8753 41.9956 19.7236" stroke="white" stroke-linecap="round"/>
<path d="M19.0703 18.1108C19.9792 17.36 20.6585 16.5025 21.7072 16.0305C22.1176 15.8459 22.7505 15.673 23.1931 15.6484C24.038 15.6015 24.8898 15.3278 25.7404 15.2428C26.2067 15.1961 26.7142 15.2032 27.1414 15.0163C27.5641 14.8314 28.2504 14.8638 28.6887 14.7993C29.371 14.699 30.0412 14.631 30.7076 14.4644C31.8367 14.1822 33.0813 14.0959 34.2408 14.1201C35.2771 14.1417 36.3749 14.6209 37.307 15.0022C38.4472 15.4686 39.6727 16.0977 40.5618 16.9693C40.8975 17.2982 41.6562 17.9149 41.6562 18.4033C41.6562 18.7422 42.0808 18.8884 42.0808 19.2995" stroke="white" stroke-linecap="round"/>
<path d="M40.5522 16.497C41.239 16.03 41.7595 15.6334 42.5429 15.3554C43.2428 15.1071 43.9134 14.8536 44.642 14.6715C46.6295 14.1746 49.2239 14.433 51.081 15.3271C52.0053 15.7722 52.646 16.3284 52.949 17.3131C53.2742 18.3698 53.2037 19.4308 53.2037 20.5255C53.2037 21.6755 52.8574 22.4825 52.2414 23.4407C52.0145 23.7937 51.7361 24.176 51.4112 24.4313C51.1219 24.6586 50.6627 25.0767 50.3168 25.2002C49.4786 25.4996 49.1271 26.9409 48.1092 26.9409" stroke="white" stroke-linecap="round"/>
<path d="M40.7223 23.375C39.585 23.8624 38.6454 25.6394 39.4487 26.7997C39.6981 27.1599 39.947 27.5356 40.4487 27.5356C40.908 27.5356 41.0281 27.4597 41.4016 27.262C42.2895 26.7919 42.3356 25.7149 42.3356 24.8185C42.3356 24.6052 42.0174 24.2328 41.8261 24.1203C41.5344 23.9487 41.6 23.4599 41.1469 23.4599" stroke="white" stroke-linecap="round"/>
<path d="M34.9484 27.856C35.8814 27.3072 34.2896 25.0839 33.8445 24.7332C33.629 24.6614 33.5234 24.4785 33.2502 24.4785H32.4011C31.8294 24.4785 31.5682 24.6044 31.4576 25.1295C31.3764 25.5156 31.1274 25.9402 31.1274 26.3277V27.2381C31.1274 27.7848 31.7069 28.0364 32.1039 28.257C32.5454 28.5023 33.3035 28.2145 33.7596 28.2145C34.3104 28.2145 34.5023 28.1184 34.9484 27.856Z" stroke="white" stroke-linecap="round"/>
<path d="M42.3355 32.9695C41.6148 33.9218 40.9357 35.0389 40.892 36.2621C40.8639 37.0502 40.9275 38.2063 41.5713 38.7858C42.074 39.2381 42.8744 39.9394 43.6092 39.5924C44.4818 39.1803 45.4545 37.9803 45.6894 37.0404C45.9497 35.9994 46.9578 33.7295 45.647 33.0355C45.4 32.9048 45.0783 32.868 44.8168 32.7808C44.5882 32.7046 44.1903 32.698 43.9912 32.5874C43.6172 32.3796 43.0327 32.6298 42.6751 32.6298" stroke="white" stroke-linecap="round"/>
<path d="M29.3443 33.3093C28.6281 34.5213 28.0629 36.0884 28.3442 37.5265C28.5907 38.7864 29.6982 40.2413 31.0094 40.4842C32.5086 40.7618 33.7433 40.4152 35.0615 39.7247C35.3477 39.5748 35.5911 39.215 35.8068 38.9935C36.1322 38.6593 36.4919 38.4012 36.5804 37.9322C36.6512 37.5568 36.7824 37.1699 36.8116 36.7906C36.8513 36.2739 36.8163 35.7431 36.8163 35.2245C36.8163 34.8678 36.886 34.3257 36.6465 34.0263C36.5469 33.9019 36.6102 33.749 36.5144 33.6395C36.3095 33.4053 36.2408 33.0887 36.0332 32.8659C35.713 32.5223 35.418 32.0989 34.9671 31.9319C34.1492 31.629 33.521 31.2715 32.618 31.2715C32.0352 31.2715 31.4991 31.3148 31.0802 31.7338C30.864 31.95 30.5841 31.9642 30.3632 32.163C30.1546 32.3508 29.9852 32.5368 29.8537 32.7999" stroke="white" stroke-linecap="round"/>
<path d="M5.22998 47.9984C5.60142 47.3841 5.83692 46.9475 6.55079 46.7436C7.04435 46.6026 7.57561 46.6165 8.0886 46.6398C8.41984 46.6549 9.07268 46.8963 9.3528 47.0644C9.67376 47.2569 10.0377 47.4554 10.334 47.6776C10.8609 48.0728 11.3299 48.6492 11.8152 49.1022C12.3081 49.5623 12.9224 49.7342 13.5511 49.9088C13.8829 50.001 14.233 49.9198 14.57 49.9984C15.0144 50.1021 15.5344 50.2633 15.9852 50.2909C16.5862 50.3277 17.1515 50.568 17.7164 50.7626C18.1938 50.9271 18.985 51.0618 19.391 51.4136C19.5444 51.5465 19.7655 51.7265 19.8816 51.8853C20.0942 52.1763 20.2512 52.4502 20.3486 52.791C20.4392 53.1081 20.5986 53.2857 20.5986 53.6448C20.5986 54.1133 20.6615 54.5356 20.4099 54.9421C20.2191 55.2503 19.9805 55.6018 19.6646 55.744C19.297 55.9094 19.0128 56.125 18.7683 56.4044C18.4339 56.7866 18.3284 57.0336 18.1787 57.5129C18.0748 57.8454 17.8373 58.1809 17.7966 58.5271C17.7736 58.7223 17.3413 59.1194 17.1833 58.8668C16.9672 58.5209 15.9335 58.4917 15.5889 58.2724C14.8635 57.8107 14.0033 57.5518 13.2964 57.0412C12.8642 56.7291 12.2188 56.5829 11.9001 56.1685C11.7598 55.9862 11.4786 55.7991 11.2774 55.7062C11.0738 55.6123 10.7768 55.2058 10.6264 55.027C10.3646 54.7155 9.9757 54.4848 9.73018 54.1779C9.42788 53.8 9.12709 53.4446 8.79618 53.0882C8.15739 52.4003 7.5577 51.5876 7.02251 50.8145C6.76852 50.4476 6.51571 49.9479 6.23002 49.6305C5.99274 49.3669 5.23951 48.7355 5.78661 48.4229C6.34911 48.1015 7.01041 47.5738 7.67348 47.5738C8.15559 47.5738 7.83197 47.404 7.52253 47.404C7.14594 47.404 6.93057 47.5223 6.59325 47.5785C5.84498 47.7032 6.58071 49.5189 6.84326 49.7815C7.09974 50.0379 7.47849 50.3525 7.77726 50.0362C8.04851 49.749 8.03199 49.281 8.03199 48.8946C8.03199 48.6173 8.09619 48.2531 7.73481 48.2531C7.3985 48.2531 7.35272 48.4942 7.35272 48.805C7.35272 49.1833 7.40443 49.2305 7.60744 49.4843C7.82263 49.7533 8.02338 49.3363 8.03199 49.121C8.04101 48.8956 8.09069 48.7977 8.18294 48.5927C8.22377 48.502 8.18565 48.3989 8.20653 48.305C8.22425 48.2252 8.31835 48.2803 8.35276 48.2153C8.41648 48.095 8.41805 47.9002 8.47541 47.7625C8.59691 47.4709 8.69396 47.8054 8.75844 47.8238C9.0943 47.9198 9.35604 48.4218 9.64055 48.6352C9.98077 48.8903 10.1876 49.3913 10.5793 49.6116C10.8081 49.7403 11.0017 50.0566 11.1453 50.272C11.3709 50.6104 11.7086 50.9129 11.9567 51.2438C12.6871 52.2177 13.3869 53.2131 13.8907 54.3288C14.0086 54.5897 14.4219 55.7247 14.103 55.9798C13.9256 56.1218 13.305 56.1315 13.1266 55.9798C12.5787 55.5142 11.899 55.1584 11.3246 54.7062C10.4722 54.0352 9.7771 53.1398 9.00845 52.3712C8.391 51.7537 7.64615 50.9494 7.22535 50.2013C6.98261 49.7697 6.9903 49.6875 7.43291 49.9088C7.9127 50.1487 8.39836 50.6573 8.77731 51.0362C9.36464 51.6236 10.0457 52.1849 10.5604 52.8382C10.9116 53.284 11.431 53.5284 11.8057 53.9373C12.0771 54.2333 12.5037 54.4906 12.8294 54.7439C13.1081 54.9607 13.4076 55.0309 13.7209 55.1968C13.911 55.2974 13.709 55.1956 13.636 55.1307C13.4218 54.9403 13.2966 54.68 13.1077 54.4515C12.7999 54.0793 12.3853 53.7067 12.1265 53.3099C11.7912 52.7958 11.3443 52.3487 11.0416 51.824C10.8113 51.425 10.3978 51.0435 10.0698 50.7155C9.79455 50.4402 9.60527 50.0783 9.30563 49.8286C9.03068 49.5995 8.48734 49.0801 8.35276 48.7437C8.22316 48.4197 8.25468 48.7664 8.30559 48.9135C8.39489 49.1715 8.52708 49.4145 8.62636 49.6682C8.87156 50.2949 9.1821 50.8513 9.64527 51.3476C9.96517 51.6903 10.3681 52.0258 10.7538 52.291C11.169 52.5764 13.1583 53.6742 13.2586 53.4986C13.2979 53.4299 12.004 52.2179 11.9284 52.1306C11.7268 51.898 11.5196 51.5788 11.2774 51.3947C11.0899 51.2523 11.1065 51.0649 10.9236 50.9277C10.2226 50.402 9.6904 49.3746 9.36224 48.5691C9.24272 48.2758 8.91962 47.4897 9.40941 47.9795C9.61162 48.1817 9.96606 48.5467 10.2208 48.6588C10.5377 48.7982 10.7666 49.4315 11.0038 49.6965C11.6623 50.4325 12.1241 51.411 12.6596 52.2438C12.9371 52.6756 13.2595 53.0665 13.5605 53.475C13.7458 53.7265 13.863 53.9171 14.004 54.2062C14.3801 54.9772 15.1243 55.8524 15.1644 56.7346C15.1924 57.3518 13.5004 56.843 13.2303 56.6308C12.9363 56.3998 13.9479 56.843 14.3011 56.9657C14.9018 57.1744 15.5013 57.3834 16.1078 57.5742C16.2206 57.6097 16.6922 57.9094 16.8154 57.8478C16.8687 57.8212 17.1145 58.1935 17.0277 57.7158C16.9315 57.1868 16.8506 56.6209 16.6078 56.1355C16.2547 55.4292 15.947 54.5466 15.3342 54.0081C14.8209 53.557 14.4297 52.9702 13.9568 52.4797C13.5962 52.1058 13.2787 51.8003 13.0369 51.357C12.8718 51.0542 12.4848 50.6681 12.235 50.4183C12.0966 50.2799 11.8613 50.1618 11.768 49.9984C11.5805 49.6703 11.7995 50.0623 11.9378 50.1871C12.8386 50.9996 13.5094 52.0169 14.3342 52.8948C14.5911 53.1683 14.7078 53.4531 15.0417 53.6495C15.2745 53.7865 15.4392 54.0483 15.5512 54.2722C15.7062 54.5823 16.0135 54.8742 16.0135 55.2581C16.0135 55.6808 15.8437 56.0679 15.8437 56.5082C15.8437 56.7566 15.8437 57.5019 15.8437 57.2535C15.8437 56.4648 15.6892 55.6525 15.3767 54.9232C15.1994 54.5096 14.8741 54.2029 14.6549 53.8194C14.601 53.725 14.4791 53.6472 14.3672 53.692C14.3161 53.7124 14.4907 53.8622 14.504 53.876C14.6482 54.0258 14.7244 54.2326 14.8813 54.3666C15.275 54.7026 15.7269 55.0456 16.0323 55.4609C16.2752 55.7913 16.7356 56.1613 16.872 56.5365C16.9914 56.8647 17.372 56.9542 17.372 57.3808C17.372 58.0196 17.372 57.3921 17.372 57.1025C17.372 56.746 17.4574 56.1492 17.7117 55.8949C17.992 55.6146 18.4445 55.6552 18.7777 55.56C18.9635 55.5069 19.1879 55.2921 19.2447 55.093C19.2494 55.0768 19.498 54.8957 19.5325 54.876C19.5834 54.8469 19.6574 54.5428 19.6834 54.4703C19.8195 54.0923 19.7231 53.8112 19.5985 53.4514C19.4725 53.0873 19.4992 52.7239 19.2778 52.3759C19.0783 52.0624 18.7936 51.7998 18.4711 51.6117C18.1552 51.4274 17.75 51.3715 17.4475 51.1825C17.1448 50.9933 16.7321 51.0551 16.3908 51.0551C16.0184 51.0551 15.6707 50.8853 15.2682 50.8853C14.5466 50.8853 13.8024 50.6305 13.0841 50.6305C12.9933 50.6305 12.2204 50.5095 12.5794 50.64C12.7387 50.6979 12.9682 50.9816 13.0935 51.107C13.3708 51.3842 13.7004 51.5894 13.9756 51.857C14.7988 52.6573 15.6747 53.3865 16.3531 54.3194C16.4925 54.511 16.6804 54.6997 16.7777 54.9185C16.818 55.0093 16.8394 55.2481 16.905 55.3006C17.1145 55.4681 17.1933 56.0337 17.4569 56.0647C17.9338 56.1208 17.8719 56.0688 18.1834 55.5742C18.3484 55.312 18.4348 54.9756 18.6032 54.7062C18.8119 54.3724 19.0995 52.3179 18.6457 52.0551C17.8244 51.5797 16.7217 51.4134 15.8012 51.3051C15.2935 51.2454 14.8089 50.9702 14.32 50.9702C13.8638 50.9702 13.3932 50.8397 13.8624 51.291C14.3687 51.7777 15.0258 52.114 15.4851 52.6684C15.7001 52.9278 16.0128 53.1862 16.1833 53.4703C16.3613 53.767 16.692 53.9304 16.8579 54.2345C16.9797 54.4579 17.4805 54.7251 17.5371 54.9232C17.5836 55.0857 17.6777 55.0458 17.839 55.0458C18.0521 55.0458 17.9664 54.6905 17.9664 54.5364C17.9664 54.0292 18.0482 53.4145 17.6456 53.0269C17.3354 52.7281 16.7645 52.3828 16.3531 52.324C16.0397 52.2792 15.7526 51.9085 15.4568 51.824C15.1997 51.7505 15.5067 52.0796 15.5559 52.1212C15.8112 52.3372 16.078 52.5768 16.2871 52.8382C16.5236 53.1339 17.8815 54.5621 17.8815 53.3901C17.8815 53.072 17.926 52.7472 17.7966 52.4561C17.5724 51.9518 17.0986 51.9891 16.6078 51.9891" stroke="white" stroke-linecap="round"/>
<path d="M6.41895 48.3379C6.90487 49.6256 7.74386 50.6663 8.56055 51.7343C8.79809 52.0449 9.0991 52.2917 9.37191 52.5645C9.6019 52.7945 9.90355 52.9545 10.1172 53.1824C10.477 53.5662 10.8643 53.8096 11.2918 54.107C11.6844 54.3801 11.9834 54.7721 12.3626 55.0646C12.6436 55.2814 12.8571 55.5519 13.1457 55.7627C13.321 55.8909 13.5936 56.0926 13.7164 56.2769C14.1196 56.8816 15.0635 56.9986 15.759 56.9986C16.1442 56.9986 16.5673 57.0483 16.9477 56.9939C17.2884 56.9453 17.665 56.659 17.9666 56.659" stroke="white" stroke-linecap="round"/>
<path d="M37.0709 49.9513C35.8189 50.5583 34.8633 51.3586 34.8633 52.8382C34.8633 53.6253 35.0133 54.3176 35.8445 54.6213C36.7534 54.9534 37.5767 55.0057 38.5144 55.1307C38.8445 55.1748 39.1944 55.2718 39.5144 55.3666C39.7944 55.4496 40.0217 55.6373 40.2975 55.7062C40.596 55.7809 40.9691 55.7251 41.2739 55.7251C41.7671 55.7251 41.8484 55.4861 42.0853 55.1307C42.6341 54.3076 42.7368 53.2504 43.2882 52.3948C43.8412 51.5366 44.7995 51.0492 45.6892 50.6305C46.2113 50.3849 46.8355 50.131 46.8355 49.4796C46.8355 48.4108 44.9594 48.0383 44.1184 47.9182C43.5939 47.8432 43.0573 47.8285 42.524 47.8285C41.9516 47.8285 41.6504 47.6684 41.156 47.3663C40.6031 47.0284 40.1364 46.8945 39.4956 46.8945C39.266 46.8945 39.0364 46.8945 38.8069 46.8945C38.4173 46.8945 38.4035 47.0302 38.0898 47.187C37.7586 47.3526 37.2738 48.0075 37.2407 48.404C37.2139 48.7267 36.9011 48.9758 36.9011 49.3569" stroke="white" stroke-linecap="round"/>
<path d="M37.5804 49.2723C37.5804 49.6736 37.6753 50.7335 37.0709 50.8007C36.8766 50.8223 36.5426 50.9694 36.3492 51.0554C36.1501 51.1439 36.1024 51.4126 35.9671 51.5649C35.8077 51.7441 35.8405 51.986 35.7925 52.2017C35.7327 52.471 35.6274 52.5888 35.6274 52.9045C35.6274 53.5432 35.7863 53.7725 36.4294 53.7725C36.9522 53.7725 37.4933 54.0569 37.9672 54.1923C38.3587 54.3042 38.754 54.639 39.1936 54.7018C39.6144 54.7619 40.0027 54.6915 40.3399 54.9612C40.5085 55.0961 40.7671 55.0461 40.9767 55.0461C41.3398 55.0461 41.2408 54.7682 41.2315 54.4518C41.2215 54.1122 40.7738 53.7267 40.4673 53.6829C40.2728 53.6551 40.1378 53.4801 39.9767 53.3857C39.7933 53.2782 39.5525 53.4101 39.3635 53.3291C38.7062 53.0474 38.1246 53.0083 37.4105 53.0083C37.0016 53.0083 36.6812 53.1133 36.4105 53.4517C36.3024 53.5869 36.3916 54.1437 36.3916 53.9706C36.3916 53.6008 36.4765 53.2369 36.4765 52.8809C36.4765 52.2807 36.6858 51.7953 37.0709 51.362C37.2477 51.1631 38.4425 50.6816 38.6653 50.9044C38.9607 51.1998 37.9809 51.6386 37.8351 51.7158C37.6668 51.8049 37.3781 51.9163 37.2407 52.0366C37.1223 52.1402 37.014 52.2506 36.9907 52.4139C36.9523 52.6827 37.0763 52.5803 37.2313 52.7158C37.445 52.9028 37.5628 53.1603 37.92 53.1781C38.1689 53.1906 38.4346 53.2071 38.6417 53.046C38.7487 52.9629 39.2388 52.4571 39.1748 52.329C39.0584 52.0963 38.6154 52.0527 38.3917 52.079C38.2983 52.09 38.1629 52.1463 38.0709 52.1781C37.6534 52.3226 39.1702 54.1916 38.2408 53.7536C37.8133 53.5522 38.2396 53.6602 38.3493 53.6876C38.5826 53.7459 38.7765 53.7983 38.9908 53.8999C39.4302 54.108 40.3905 54.7095 40.656 54.1121C40.8371 53.7046 40.8067 52.7248 40.656 52.329C40.4348 51.7486 40.4357 51.0567 40.2314 50.4893C40.037 49.9494 40.2673 49.364 40.1088 48.8289C40.0591 48.6613 40.0029 48.2447 39.9106 48.126C39.821 48.0108 39.6112 47.6056 39.4908 47.5788C38.9852 47.4665 38.6592 47.8202 38.2172 47.9185C37.5595 48.0646 37.7683 48.808 37.92 49.2251C38.038 49.5497 38.2915 49.7811 38.4106 50.1025C38.5423 50.4583 38.624 50.8022 38.8115 51.1356C38.9709 51.4189 39.2027 51.8106 39.2974 52.112C39.3435 52.2587 39.5991 52.9537 39.7031 53.0272C39.768 53.073 40.0198 53.5747 40.038 53.4564C40.081 53.177 39.9623 52.8834 39.9578 52.6026C39.9533 52.3216 40.0495 51.8762 39.8918 51.6309C39.7731 51.4463 39.6539 51.018 39.6229 50.8007C39.6007 50.6451 39.713 50.0327 39.571 49.9516C39.2393 49.762 39.4661 48.7628 38.8965 48.7628C38.1543 48.7628 38.9967 49.948 39.1936 50.2723C39.3487 50.5278 39.247 50.8481 39.4908 51.0648C39.6147 51.1749 39.6269 51.3969 39.6842 51.546C39.7383 51.6865 39.8787 51.7614 39.939 51.9045C40.0295 52.1197 40.2523 52.4937 40.2927 52.7158C40.3646 53.1112 40.8033 53.3838 40.9579 53.7914C41.0423 54.0139 41.2622 54.1137 41.3211 54.3197C41.3508 54.4236 41.7409 54.5094 41.7409 54.282C41.7409 54.0589 41.6645 53.8258 41.5239 53.6451C41.3252 53.3896 41.2607 52.9354 41.1466 52.6215C40.9373 52.0461 40.8918 51.539 40.8918 50.928C40.8918 50.2643 40.9641 49.397 40.7645 48.7581C40.5885 48.195 40.6491 47.8863 40.2975 47.4467C40.0521 47.14 39.5439 48.0614 39.5333 48.2534C39.5207 48.4795 39.3737 48.6824 39.472 48.9279C39.6501 49.3732 39.9931 50.0676 40.4295 50.3101C41.0021 50.6282 41.3919 51.3961 41.59 51.9705C41.6927 52.2683 41.9956 52.5619 41.9956 52.8762C41.9956 53.0901 41.9956 53.3039 41.9956 53.5178C41.9956 53.7925 41.9956 53.895 41.9956 53.5555C41.9956 53.1921 41.9545 52.8077 42.0806 52.4611C42.1636 52.2326 42.2476 51.9072 42.4202 51.7347C42.5842 51.5707 42.9322 51.554 43.1419 51.4375C43.5867 51.1904 44.1332 51.1282 44.5807 50.9044C44.9079 50.7409 46.8491 49.7595 45.9439 49.3572C45.7029 49.2501 45.459 49.3115 45.2222 49.2063C44.9992 49.1072 44.9083 49.0509 44.6609 49.0129C44.0883 48.9248 43.5447 48.7707 42.9721 48.6826C42.6183 48.6282 42.4076 48.6723 42.0806 48.527C41.9368 48.4631 41.7534 48.2994 41.6088 48.2581C41.5345 48.2369 41.1307 48.1315 41.0805 48.1873C40.9556 48.3261 41.3062 48.8337 41.3164 49.0176C41.353 49.6767 41.656 50.2599 41.656 50.9516C41.656 51.0689 41.5857 51.5826 41.7032 51.6498C41.9253 51.7767 42.3052 51.7776 42.5523 51.7158C42.9468 51.6172 43.3857 51.3101 43.7835 51.3101C43.9761 51.3101 44.4226 51.1996 44.5618 51.0743C44.8098 50.851 44.7977 50.763 44.7977 50.4233C44.7977 50.1156 44.5919 50.0235 44.425 49.8195C44.2068 49.5528 43.902 49.3831 43.524 49.2912C43.2451 49.2233 42.7894 49.1025 42.5051 49.1025C42.2518 49.1025 41.9938 49.0876 41.7409 49.1025C41.5026 49.1165 41.7437 49.7364 41.7834 49.8289C41.8992 50.0993 42.0036 51.2252 42.3777 51.2252C42.5694 51.2252 42.8249 51.0747 43.0146 50.9894C43.2546 50.8813 43.7426 50.6971 43.9297 50.5271C44.3402 50.1539 42.9196 50.3282 42.6749 50.2252C42.4818 50.1438 42.1419 50.079 42.0004 49.9138C41.8168 49.6996 41.9956 50.1941 41.9956 50.3431C41.9956 50.9359 41.9956 51.5287 41.9956 52.1215C41.9956 52.605 42.2504 52.9625 42.2504 53.4329" stroke="white" stroke-linecap="round"/>
<path d="M37.8353 48.3379C38.8241 48.6481 40.0097 48.3824 40.9392 48.8049C41.3079 48.9725 41.7743 48.9902 42.1657 49.1021C42.3815 49.1637 43.2575 49.3582 43.3733 49.5266C43.5064 49.7202 44.1842 49.7519 44.4111 49.8474C44.8073 50.0142 45.2881 49.8982 45.6847 50.0785C45.8977 50.1753 45.8506 50.1436 45.6423 50.0785C45.3898 49.9997 45.0972 50.0361 44.8356 50.0361C44.5751 50.0361 44.3129 50.0268 44.0526 50.0361C43.8004 50.0451 43.6342 50.2438 43.4016 50.2861C43.2306 50.3172 43.0148 50.8156 43.0148 51.0173C43.0148 51.3262 43.0827 51.7647 42.8638 52.0079C42.7138 52.1746 42.4855 52.6268 42.2506 52.6683C41.9414 52.7228 41.7447 53.2988 41.444 53.4325C41.0793 53.5945 40.7575 53.7773 40.3449 53.8523C39.8128 53.949 39.2087 53.857 38.6655 53.857C38.4652 53.857 37.4698 53.7196 37.3259 53.8995C37.0685 54.2212 36.8164 53.8357 36.8164 54.3665" stroke="white" stroke-linecap="round"/>
<path d="M59.6568 24.1393C58.9242 24.1501 58.024 24.3769 57.6851 25.1394C57.6007 25.3291 57.4211 25.4786 57.3265 25.6677C57.2143 25.8921 57.2794 26.2353 57.2794 26.4791C57.2794 27.6387 58.0129 28.326 58.4021 29.3377C58.6865 30.0772 58.3997 30.5115 57.7039 30.951C56.9041 31.4561 56.7999 32.3782 56.6803 33.2152C56.6054 33.7397 56.6001 34.2616 56.6001 34.8002C56.6001 35.0832 56.8571 35.8862 57.152 36.0172C58.0841 36.4315 59.149 35.7695 60.0436 35.6068C60.2369 35.5717 61.6436 35.802 61.6899 35.6399C61.8801 34.9745 61.7796 34.1344 61.7796 33.4322C61.7796 31.2557 61.8354 29.0699 61.7796 26.8942C61.7622 26.2187 61.5803 25.4354 61.4211 24.7809C61.3492 24.4856 61.407 24.1632 61.3079 23.8799C61.2199 23.6287 61.1158 23.3929 61.0343 23.1393C60.9713 22.9434 60.884 22.6534 60.7607 22.4931C60.6444 22.3419 60.7155 22.1633 60.5908 22.0166C60.4042 21.797 60.1771 21.2576 59.9068 21.1675C59.6394 21.0784 59.3172 20.8001 59.3172 21.2524C59.3172 21.5579 59.4021 21.8571 59.4021 22.1487C59.4021 22.5869 59.6128 22.9367 59.6616 23.3752C59.6827 23.5656 59.8971 24.1589 60.0153 24.2903C60.645 24.9899 60.3847 23.3014 60.3172 22.9978C60.2868 22.8607 60.0044 22.0431 59.9965 22.1864C59.9438 23.1349 60.3361 24.0157 60.3361 24.946C60.3361 25.0865 60.3903 26.2509 60.2465 26.2149C59.916 26.1323 59.7154 25.8902 59.6616 25.5404C59.6073 25.1879 59.5106 24.8186 59.1049 24.8186C59.0376 24.8186 58.7518 25.1621 58.6804 25.2479C58.4664 25.5046 58.2854 25.5049 58.2181 25.8753C58.1678 26.1521 58.1812 26.5419 58.2181 26.8187C58.3283 27.6455 58.6663 28.4534 58.9964 29.1962C59.4976 30.3237 58.4205 31.0745 57.9398 32.0359C57.6837 32.5482 57.619 33.1401 57.619 33.7341C57.619 34.1427 57.5361 34.3049 57.3832 34.6681C57.3212 34.8152 57.2794 35.59 57.2794 34.9228C57.2794 34.6446 56.9397 34.5184 56.9397 34.1964C56.9397 33.9238 56.5258 33.2987 56.8501 33.8662C56.9858 34.1037 57.2794 34.6071 57.2794 34.8804C57.2794 35.0058 57.5617 35.5353 57.6662 35.6399C57.8946 35.8682 58.4587 35.2583 58.6804 35.1351C59.0377 34.9366 59.5158 35.0078 59.9116 35.0078C60.2654 35.0078 60.6191 35.0078 60.9729 35.0078C61.2027 35.0078 61.6111 34.8751 61.2512 34.6304C60.471 34.0998 59.7111 33.5643 58.7417 33.5643C58.1617 33.5643 58.0087 34.0655 58.1332 34.6257C58.2658 35.2225 59.2831 35.1776 59.7417 35.0502C60.6015 34.8114 60.8456 33.8274 60.8456 32.9699C60.8456 32.607 60.7762 32.223 60.421 32.0548C60.0892 31.8976 59.8684 32.3389 59.6946 32.5454C59.5872 32.6729 59.609 33.005 59.5295 33.1728C59.427 33.3891 59.3172 33.4729 59.3172 33.7341C59.3172 34.0544 58.9913 34.2516 58.9776 34.4983C58.9603 34.8094 58.9156 35.0291 58.553 35.0078C58.2618 34.9906 58.3832 34.1748 58.3832 33.9888C58.3832 33.0298 58.5944 32.2174 59.0247 31.3566C59.4378 30.5305 59.5599 29.5658 59.4823 28.6348C59.4264 27.9643 59.275 27.2473 59.0247 26.6395C58.9995 26.5781 58.8306 25.847 58.9351 25.847C58.9677 25.847 59.1404 26.3663 59.1662 26.413C59.5898 27.1787 59.6587 28.1329 59.8691 28.9745C60.1094 29.9357 59.9965 31.0005 59.9965 31.9888C59.9965 32.8532 59.7397 33.6766 58.8077 33.6492C58.5561 33.6418 57.9859 32.9883 58.2983 32.9699C58.7542 32.9431 59.2189 32.9699 59.6757 32.9699C59.9763 32.9699 60.33 32.9269 60.4871 32.6303C60.8615 31.9229 60.7607 30.67 60.7607 29.9132C60.7607 28.5648 60.5908 27.2102 60.5908 25.8753C60.5908 25.74 60.5908 25.3344 60.5908 25.4696C60.5908 25.911 60.8552 26.3589 60.9588 26.781C61.2576 27.9983 61.4703 29.2852 61.3503 30.5453C61.3081 30.988 61.1144 31.3993 61.0201 31.8236C60.9787 32.0099 60.6778 32.6012 60.5389 32.7246C59.9424 33.2549 59.7571 34.243 60.0153 34.9889C60.1615 35.4112 60.4322 35.1433 60.638 34.9889C60.7346 34.9164 60.6628 34.6186 60.7229 34.4983C60.8419 34.2604 60.8456 34.0644 60.8456 33.8002C60.8456 33.6067 60.9566 32.9796 60.6946 32.9699C60.2314 32.9528 59.7394 33.0265 59.2795 32.9652C58.5173 32.8636 58.8963 32.2067 58.9823 31.734C59.0113 31.5746 59.0913 31.4142 59.1662 31.2717C59.338 30.9454 59.3172 30.6725 59.3172 30.3C59.3172 29.8777 59.3833 29.3934 59.2983 28.9792C59.2524 28.7553 59.1063 28.5619 59.0672 28.3471C58.9758 27.8445 59.1935 27.2574 59.02 26.7715C58.9609 26.606 58.9776 26.4358 58.9776 26.2621C58.9776 26.224 59.148 26.5174 59.237 26.6064C59.6381 27.0075 60.0777 27.5462 60.355 28.0452C60.6354 28.55 60.6757 28.0302 60.6757 27.7716C60.6757 27.2221 60.6826 26.7481 60.8267 26.2149C60.9134 25.8939 61.0352 25.5803 61.0154 25.2432C61.0074 25.1073 60.4341 25.1973 60.355 25.262C59.7848 25.7285 59.5719 26.5212 59.5719 27.281C59.5719 27.4115 59.6581 27.992 59.4021 27.8565C59.2112 27.7554 58.923 27.2864 58.7653 27.1112C58.4392 26.7489 58.7044 27.0141 59.02 27.1112C59.4322 27.238 59.8635 27.1961 60.2937 27.1961C60.4817 27.1961 60.733 27.1566 60.9116 27.0923C60.9561 27.0763 61.1486 26.8884 61.0531 26.8612C60.6674 26.751 60.1525 26.6017 59.7417 26.6017C59.4781 26.6017 58.1025 26.4419 58.4681 26.8989C58.621 27.09 59.1924 27.1961 59.4446 27.1961C59.8574 27.1961 60.2601 27.1652 60.5531 27.5169C61.0373 28.0979 61.4948 28.934 61.7796 29.6302C61.801 29.6824 62.1157 30.6416 62.1003 30.6396C61.9123 30.6161 61.5022 29.6225 61.4022 29.4462C61.1679 29.0334 60.8793 28.6217 60.6757 28.1961C60.4462 27.7162 60.04 27.4049 59.6993 27.0263C59.5204 26.8275 59.1819 26.8564 58.9351 26.8564C58.3896 26.8564 59.2868 27.1996 59.4823 27.3235C60.0735 27.6979 60.6446 28.0827 61.1852 28.5075C61.4326 28.7018 61.5987 28.8869 61.8645 29.0641" stroke="white" stroke-linecap="round"/>
<path d="M60.5059 24.3086C60.5251 24.3957 61.0162 25.5395 60.8833 25.5775C60.6844 25.6343 60.4943 25.8014 60.2937 25.8322C59.9379 25.887 59.7955 25.8509 59.487 26.0492C59.2081 26.2285 58.3186 26.576 58.2983 26.9408C58.2725 27.4049 58.3684 27.7126 58.8078 27.9597C59.9582 28.6068 59.6568 29.997 59.6568 31.0589C59.6568 31.5107 59.5894 32.0627 59.4917 32.5023C59.4473 32.7023 59.3172 32.7792 59.3172 32.4976C59.3172 31.9221 59.3508 31.3357 59.3125 30.7617C59.2598 29.9711 59.2323 29.1971 59.2323 28.4031C59.2323 27.9862 59.3584 27.325 59.1663 26.9408C59.0938 26.7958 58.9743 26.0987 58.6851 26.1813C58.3289 26.2831 58.8352 26.8608 58.9351 26.9408C59.2798 27.2165 59.7653 27.3825 60.0342 27.771C60.2848 28.1329 60.6422 28.7281 60.0625 28.1484C59.8826 27.9685 59.9376 27.8211 59.6946 27.6861C59.6249 27.6474 59.3784 27.3523 59.3361 27.2804C59.2125 27.0703 58.7909 26.9408 58.553 26.9408" stroke="white" stroke-linecap="round"/>
<path d="M19.9194 2.40208C20.2108 3.96831 21.4832 5.73293 23.2875 5.20409C23.6737 5.09089 23.9919 4.85782 24.3772 4.74652C24.8754 4.6026 25.3617 4.4571 25.8537 4.28896C26.422 4.09471 26.9432 4.08633 27.5424 4.10027C28.5394 4.12345 28.8567 5.05004 29.5614 5.50599C30.3291 6.00275 30.7792 6.47773 31.7549 6.47773C32.2397 6.47773 32.5886 6.33662 33.0427 6.18527C33.5942 6.00142 34.0747 5.5985 34.6371 5.46354C35.0133 5.37324 35.3729 5.11918 35.7598 5.11918C36.3478 5.11918 36.9359 5.11918 37.524 5.11918C37.986 5.11918 38.3816 5.289 38.8542 5.289C39.3749 5.289 39.7083 5.19498 40.1279 4.88332C40.9989 4.23624 41.8261 3.16371 41.8261 2.06244C41.8261 1.363 40.8393 0.951532 40.2788 0.788802C39.2629 0.493855 38.2743 0.179281 37.2126 0.0434865C36.6255 -0.0316188 36.0535 -0.185777 35.4673 -0.267848C34.7327 -0.370684 33.989 -0.370143 33.2549 -0.484839C32.2238 -0.64595 31.1743 -0.589247 30.1463 -0.442384C29.5845 -0.362122 28.8491 -0.301676 28.3255 -0.0980292C27.8558 0.0846331 27.3649 0.0558102 26.882 0.236891C26.4252 0.408191 25.9593 0.364255 25.4763 0.364255C24.6651 0.364255 23.6143 0.213779 22.8535 0.571812C22.598 0.692049 22.0612 0.648161 21.8723 0.82654C21.6278 1.05747 21.378 1.08397 21.0657 1.22278C20.7905 1.34511 20.9101 1.54556 20.8487 1.76054C20.8159 1.87543 20.4045 1.78435 20.3062 1.81243C20.2087 1.8403 20.5776 2.13835 20.594 2.23698C20.6306 2.45642 20.576 2.60063 20.6836 2.78889C20.8914 3.15254 21.1373 3.62285 21.2827 4.01064C21.3471 4.18234 21.9006 5.02595 22.0422 5.03427C22.2613 5.04716 22.5806 4.82516 22.8064 4.76067C23.2104 4.64524 23.5339 4.43912 23.9573 4.33613C24.2858 4.25623 24.5625 4.10027 24.9102 4.10027C25.3624 4.10027 25.7613 3.80996 26.2074 3.76535C27.6944 3.61665 30.3512 3.36777 30.2784 1.40204C30.2408 0.387816 28.8297 0.0358389 28.033 0.0246177C26.8008 0.00726262 25.3963 -0.0921828 24.2121 0.279346C23.9136 0.372992 23.625 0.364255 23.3158 0.364255C22.9022 0.364255 22.8056 0.495695 22.4478 0.647287C22.1282 0.78271 21.8506 0.725281 21.5327 0.89258C20.9162 1.21705 21.2002 1.46279 21.4478 2.01999C21.6017 2.36621 21.5579 2.85876 21.6223 3.21344C21.6659 3.4533 21.7596 3.61047 21.8723 3.8078C21.9536 3.95007 21.9735 4.33347 22.061 4.42104C22.0904 4.45041 22.1271 3.6285 22.1271 3.52477C22.1271 3.23545 22.1271 2.94613 22.1271 2.65681C22.1271 2.29355 22.1792 1.88317 22.0893 1.53412C21.9724 1.07998 21.6176 1.72952 21.6176 1.93508C21.6176 2.55937 23.654 1.78898 23.9526 1.63318C24.2542 1.47583 24.7603 1.30445 25.0046 1.0907C25.2481 0.877593 25.3599 1.26459 25.1791 1.43034C24.9635 1.62793 24.7505 1.7316 24.547 1.93508C24.4344 2.04763 24.3235 2.12231 24.1649 2.14735C24.013 2.17133 24.0195 2.36818 23.9007 2.44454C23.3219 2.81664 22.9417 3.21019 22.429 3.72289C22.364 3.78785 22.0457 4.06073 22.3818 4.10027C22.7299 4.14122 22.7299 3.72781 22.7875 3.43986C22.9127 2.81373 22.8064 2.07109 22.8064 1.43034C22.8064 0.95855 23.5173 1.12844 23.8677 1.12844C24.3658 1.12844 25.1838 0.892459 25.1838 1.53412C25.1838 1.96056 24.4969 2.2833 24.2687 2.65681C24.1493 2.85214 23.795 2.96875 23.6743 3.16627C23.5675 3.34101 23.4603 3.45268 23.3347 3.60968C23.1698 3.81575 23.6033 3.50125 23.6554 3.48703C23.9211 3.41459 24.1762 3.34776 24.4385 3.27004C25.36 2.99699 26.4129 3.24481 27.3443 2.99645C27.845 2.86291 28.385 2.81543 28.901 2.74172C29.1878 2.70074 29.4676 2.40208 29.7312 2.40208C30.2506 2.40208 31.0815 1.23976 30.4482 0.939752C29.8195 0.641942 28.7503 0.720013 28.0896 0.854843C27.0894 1.05896 26.0685 1.02674 25.1838 1.59544C24.7974 1.84384 24.3582 2.03791 23.9573 2.27C23.6973 2.42054 23.311 2.42632 23.1035 2.65681C22.7199 3.08304 22.3518 3.01374 22.6271 3.63327C22.7963 4.01388 23.1475 4.27424 23.4479 3.88799C23.8161 3.41454 24.1821 2.97053 24.797 2.80776C25.225 2.69447 25.618 2.59459 26.0518 2.50586C26.3771 2.43931 26.8423 2.50098 27.1367 2.38321C27.8078 2.11479 28.6623 2.06244 29.3821 2.06244C29.6773 2.06244 29.9857 2.01462 30.2784 1.97282C30.7041 1.912 30.2594 1.72281 30.0614 1.72281C29.2123 1.72281 28.3632 1.72281 27.5141 1.72281C26.9009 1.72281 26.2876 1.72281 25.6744 1.72281C25.4124 1.72281 25.1709 1.79499 24.9291 1.80771C24.3812 1.83655 25.202 1.73227 25.4102 1.68507C26.3669 1.46822 27.326 1.0167 28.25 0.685024C28.9987 0.41624 29.7492 0.0922359 30.5142 -0.126332C30.9096 -0.239285 32.2054 -0.294998 32.4389 0.0717896C32.7537 0.566571 31.6682 0.968788 31.4247 1.29354C31.108 1.71575 30.3588 1.81622 30.1274 2.2983C30.0666 2.42504 29.5956 2.68985 29.467 2.76059C29.2545 2.87749 29.1619 3.13784 28.9576 3.27004C28.8578 3.33462 28.0083 4.18518 28.5377 4.18518C28.8063 4.18518 29.3284 4.69377 29.467 4.91162C29.5809 5.09058 29.7502 5.26085 29.901 5.41165C30.0386 5.54927 30.2604 5.47819 30.4105 5.67109C30.6707 6.00564 31.4564 5.96828 31.8445 5.96828C32.0564 5.96828 32.4121 5.76644 32.6134 5.67109C33.1194 5.43141 33.4365 5.0409 33.8068 4.64746C34.4906 3.92093 34.9205 2.82053 35.0993 1.85489C35.1799 1.42001 35.2799 0.932315 35.0144 0.534074C34.7725 0.171224 34.5068 0.107094 34.2031 -0.16407C33.4986 -0.793027 32.4723 0.101039 31.8351 0.364255C31.3486 0.565193 29.9251 1.09494 30.2972 0.722762C30.4241 0.595903 30.7614 0.364255 30.9577 0.364255C31.1787 0.364255 31.7171 -0.0461316 31.5756 0.123679C31.3145 0.437064 30.982 0.688944 30.6982 0.972773C30.3357 1.33531 30.1861 1.78312 29.8633 2.15207C29.7034 2.33473 29.5109 2.72496 29.4293 2.94927C29.3259 3.2335 29.2595 3.48973 29.2595 3.79837C29.2595 3.93322 29.2543 4.06927 29.2595 4.20405C29.266 4.3727 29.3918 4.37237 29.4246 4.48708C29.5412 4.89528 29.9019 5.0458 30.1274 5.37391C30.1969 5.47496 30.6952 5.7597 30.7029 5.62864C30.716 5.40591 30.6865 5.20679 30.5331 5.03427C30.3101 4.78337 30.1886 4.30128 30.0708 3.99649C29.9238 3.61593 29.7689 3.4075 29.7689 2.99173C29.7689 2.54528 30.0775 2.65281 30.1133 3.0106C30.1506 3.384 30.3855 3.69151 30.4529 4.06253C30.5102 4.37786 30.7878 4.66591 30.7878 4.99182C30.7878 5.1454 30.9108 5.52742 31.0426 5.60977C31.147 5.67507 31.4473 5.98508 31.4671 5.62864C31.4827 5.34755 31.4671 5.06098 31.4671 4.77954C31.4671 3.71074 31.1275 2.70106 31.1275 1.6379C31.1275 1.12279 31.0803 1.99941 31.0237 2.17566C30.937 2.44535 30.8029 2.79553 30.7878 3.08136C30.776 3.30644 30.7878 3.53511 30.7878 3.76063C30.7878 3.93201 31.055 4.38281 31.2218 4.43047C31.5715 4.53039 32.4692 4.36367 32.6936 4.65218C32.9108 4.93145 32.7695 5.69865 32.3822 5.71355C31.3939 5.75156 32.1298 4.14209 32.1464 3.61912C32.1776 2.63543 32.1464 1.64576 32.1464 0.661438C32.1464 0.324618 32.2527 -0.158485 32.1039 0.40671C32.0426 0.639793 31.9082 0.833847 31.8445 1.0624C31.7701 1.32918 31.7961 1.55633 31.6841 1.81243C31.5412 2.13915 31.5974 2.67045 31.4199 2.94927C31.1355 3.39629 31.6522 2.61685 31.7171 2.48699C31.9226 2.07597 32.1994 1.7367 32.4341 1.34543C32.5795 1.10309 32.7029 0.795045 32.8728 0.576529C32.9962 0.417889 32.8497 1.11074 32.8162 1.26996C32.6676 1.97604 32.486 2.53533 32.486 3.27948C32.486 3.58767 32.486 3.89586 32.486 4.20405C32.486 4.59178 32.6289 4.50967 32.9294 4.69463C33.7904 5.22448 33.7951 3.92369 33.8493 3.46345C33.9075 2.96891 33.9665 2.43251 34.0568 1.94451C34.1367 1.51333 34.1088 1.05553 34.0993 0.618983C34.092 0.285228 33.9032 0.364255 33.6276 0.364255C33.1612 0.364255 33.1653 0.47467 33.1653 0.873712C33.1653 1.19134 33.1653 1.50896 33.1653 1.82658C33.1653 2.76473 32.8257 3.58913 32.8257 4.52482C32.8257 4.63707 32.7644 5.02017 32.8445 5.10031C33.0102 5.26595 33.3502 5.01527 33.4861 4.96823C33.6898 4.8977 34.092 4.87747 34.3069 4.86445C34.5539 4.84948 34.775 4.77954 35.0333 4.77954C35.3607 4.77954 35.6082 4.61839 35.9201 4.60972C36.3298 4.59834 36.7415 4.60972 37.1513 4.60972C38.4239 4.60972 40.4138 5.30226 41.5053 4.25122C42.1743 3.60701 42.2255 2.19181 41.9959 1.37373C41.9179 1.09611 41.7807 1.79382 41.7364 1.88791C41.6149 2.14606 41.4594 2.40666 41.2789 2.62851C40.5754 3.49276 39.2694 3.34522 38.2787 3.62383C37.731 3.77789 37.1944 3.92488 36.6277 3.9729C35.7462 4.04761 34.8073 3.88682 33.9389 4.0531C33.7239 4.09426 32.706 4.62266 33.0191 4.02008C33.6239 2.85568 34.5625 1.66174 35.505 0.74163C35.6216 0.627834 35.8301 0.616595 35.7928 0.411427C35.7254 0.0406253 35.4206 0.851547 35.4107 0.902015C35.3336 1.29617 35.3729 1.72453 35.3729 2.12377C35.3729 2.45043 35.5113 3.58278 35.222 3.8078C35.0655 3.9295 35.2031 3.41166 35.2031 3.21344C35.2031 2.78787 35.4217 2.27235 35.5899 1.88791C35.7205 1.58957 35.9353 1.28795 36.0947 1.00108C36.1184 0.958443 36.3736 0.393806 36.3919 0.703893C36.4372 1.47498 36.0182 2.38201 35.8635 3.13796C35.847 3.2187 35.7099 3.68504 35.8399 3.73704C35.9831 3.79429 35.9172 3.43622 35.9862 3.29835C36.2617 2.7472 36.5968 2.15969 36.7268 1.55299C36.7879 1.26779 36.8453 0.891153 37.024 0.661438C37.1589 0.487881 37.0663 1.08812 37.0287 1.20863C36.8104 1.90711 36.5175 2.68703 36.4768 3.42099C36.4726 3.49511 36.4183 3.62825 36.3541 3.671C36.1536 3.80466 36.5085 3.2096 36.6371 3.00588C36.9038 2.5837 37.2399 2.20733 37.4296 1.74167C37.4794 1.61956 37.6103 1.46995 37.708 1.38317C37.7779 1.32102 37.8361 1.00452 37.9014 0.996359C38.0126 0.98245 37.702 1.51763 37.6844 1.55299C37.5336 1.85456 37.4856 2.24385 37.3919 2.5719C37.3202 2.82281 37.2026 3.02597 37.09 3.25117C37.0446 3.34193 36.7701 3.59942 36.8164 3.55307C37.2044 3.16505 37.7045 2.61831 37.9721 2.14264C38.1519 1.82293 38.5421 1.59092 38.6042 1.21807C38.6554 0.911182 38.766 0.921746 38.642 1.30769C38.4601 1.87361 38.0299 2.45716 37.9249 3.03418C37.8888 3.23317 37.6917 3.39793 37.4957 3.42099C37.4109 3.43097 37.0532 3.63874 37.3825 3.52477C37.8859 3.35052 38.3639 2.87596 38.7505 2.50586C39.0833 2.18716 39.7489 1.81134 39.9392 1.38317C40.0182 1.20536 39.1694 1.59558 39.0665 1.67563C38.9971 1.7296 38.7192 1.72281 38.8071 1.72281C39.0337 1.72281 39.2518 1.66062 39.4769 1.64261C39.9321 1.6062 40.0873 1.78603 40.4298 1.97282C41.2778 2.43538 40.0813 2.79994 39.7411 2.95871C39.4307 3.10353 39.0353 3.12542 38.6938 3.07664C38.4718 3.04492 38.5949 2.45499 38.8118 2.4068C39.6848 2.21279 38.5333 1.30175 38.5146 1.6379C38.4802 2.25695 38.7693 2.88541 38.7693 3.52477C38.7693 3.69126 38.6473 4.20523 38.7033 4.31726C38.746 4.40266 38.9767 4.1711 39.024 4.14744C39.1863 4.06632 39.3643 4.06225 39.5335 3.97762C39.7495 3.86964 40.1279 3.7569 40.1279 3.46345C40.1279 3.14865 40.0038 2.94425 39.9628 2.65681C39.8999 2.21666 39.4232 1.90132 39.2788 1.46808" stroke="white" stroke-linecap="round"/>
<path d="M16.8625 10.4683C16.1432 10.5962 15.3717 10.5005 14.8435 11.0816C14.5068 11.4519 15.2452 11.7475 15.4567 11.959C15.8076 12.3098 16.2531 12.4887 16.7351 12.5958C16.833 12.6176 16.8327 12.738 16.9143 12.7562C17.0351 12.783 17.1818 12.7609 17.3059 12.7609C17.6067 12.7609 17.8296 12.5848 18.0701 12.4213C18.8756 11.8735 19.8343 11.5602 19.8343 10.4212C19.8343 10.3054 19.5881 9.9333 19.4758 9.89284C19.2515 9.81211 19.0644 9.78906 18.8154 9.78906C18.3751 9.78906 17.9727 10.0849 17.6314 10.341C17.3527 10.55 17.0077 10.8518 16.6926 10.9778C16.4801 11.0628 16.2603 11.1435 16.0322 11.2137C15.9643 11.2345 15.4497 11.2249 15.5888 11.2986C16.1389 11.5898 16.7327 11.7445 17.287 11.9778C17.6685 12.1385 18.1216 11.9001 18.3436 11.6146C18.4627 11.4616 18.7905 10.6707 18.3908 10.7278C18.0439 10.7773 17.6012 11.2097 17.4379 11.4873C17.419 11.5194 17.0155 11.7032 17.2445 11.6524C17.6006 11.5732 17.9279 11.4773 18.2493 11.2844C18.7197 11.0022 19.4394 11.0181 19.7494 10.5532" stroke="white" stroke-linecap="round"/>
<path d="M18.9006 10.0439C18.6634 10.3666 18.4761 10.5932 18.4761 10.9779" stroke="white" stroke-linecap="round"/>
</g>
<defs>
<clipPath id="clip0_1_16">
<rect width="62" height="62" rx="31" fill="white"/>
</clipPath>
</defs>
</svg>